<?xml version="1.0" encoding="utf-8"?>
<!-- Generator: Adobe Illustrator 23.0.3, SVG Export Plug-In . SVG Version: 6.00 Build 0)  -->
<svg version="1.1" id="Layer_1" xmlns="http://www.w3.org/2000/svg" xmlns:xlink="http://www.w3.org/1999/xlink" x="0px" y="0px"
	 viewBox="0 0 200 142" style="enable-background:new 0 0 200 142;" xml:space="preserve">
<style type="text/css">
	.st0{fill:#2B9947;}
	.st1{fill:#80C291;}
	.st2{fill:#373737;}
</style>
<g>
	<path class="st0" d="M95.6,28.8c1-2.3,1.9-4.5,3-7.1c0.6,2.7,2.1,4.5,4.4,5.3c2.9,0.9,6.1,1.4,8.8-0.1c1.4-0.7,2.5-2.7,2.8-4.3
		c0.6-3.2,0.7-6.5,0.9-9.8c0-0.3-0.3-0.8-0.4-0.8c-0.3,0.1-0.8,0.2-0.9,0.5c-0.3,0.9-0.5,1.8-0.6,2.7c-0.2,2.2-0.2,4.4-0.4,6.6
		c-0.3,3-1.6,4.1-4.6,4.2c-7.2,0.2-9.2-2-8.1-9.2c1-6.9,3.7-12.7,10.6-15.5c4.6-1.9,9.2-1.6,13.8-0.1c2.5,0.8,4.9,1.8,7.2,3.1
		c1.3,0.7,2.5,2,3.1,3.3c1.3,2.7,3.4,4.4,6.1,5.5c3.3,1.3,6.6,2.6,9.9,3.9c3,1.2,3.3,2.4,1.7,5.2c-1.1,2-2.2,4-3.2,6.1
		c-1.1,2.6-2.9,4.3-5.6,4.7c-2.9,0.5-5.9,0.5-8.8,0.8c-2.9,0.3-5.7,0.6-8.5,1.1c-1.8,0.3-2.5,1.6-2.7,3.5
		c-0.7,10.7,1.2,21.1,2.9,31.6c0.7,4.3,0.7,8.8,0.9,13.2c0.2,3.5,2.2,6,4.9,7.6c2.6,1.6,5.6,2.8,8.6,3.2c6.6,0.9,13.4,1.2,20,1.9
		c2,0.2,3.8,1,5.7,1.6c2.8,0.9,5.5,2.1,8.3,2.8c6.1,1.4,12.2,2.4,18.3,3.7c1.8,0.4,3.6,1.3,5.2,2.4c1.4,1.1,1.2,2.5-0.4,3.2
		c-6.1,2.5-12.2,3.2-18.5,0.4c-2.5-1.1-5.2-2.2-7.8-2.3c-10.9-0.5-21.9-0.6-32.8-0.8c-2.7,0-5.4,0.3-8,0.6
		c-6.1,0.8-11.4-1.1-16.1-4.8c-1.3-1-2.2-0.9-3.4,0.1c-3.7,3-7.7,4.7-12.7,3.6c-1.6-0.4-3.3-0.1-4.7-0.1c1-2.5,1.8-5.1,3-7.6
		c1.2-2.6,1-4.9-0.2-7.3c-1-2-0.6-2.8,1.6-3.2c0.3-0.1,0.7-0.2,1-0.1c4.8,0.9,6.4-2.7,8.1-5.9c0.4-0.7,0.1-2-0.3-2.7
		c-1.3-2.2-2.9-4.3-4.3-6.5c-1.9-3.1-4.6-5.1-8-6.4c-0.6-0.2-1.5-1-1.5-1.5c-0.3-5.8-2.5-11-4.6-16.2c0.3-3.2,0.6-4,3.5-4.5
		c3.6-0.7,5.2-3,6.4-6.1c0.5-1.3,0.2-2.3-0.4-3.4C97.5,32.9,96.6,30.8,95.6,28.8z M152.2,106.1c0-0.1,0-0.1,0.1-0.2
		c-2.7,0-5.4,0-8.2,0c0,0.1,0,0.1,0,0.2C146.8,106.1,149.5,106.1,152.2,106.1z"/>
	<path class="st1" d="M95.6,28.8c1,2.1,2,4.2,3.1,6.2c0.6,1.1,0.9,2,0.4,3.4c-1.2,3.1-2.8,5.4-6.4,6.1c-2.9,0.5-3.2,1.3-3.5,4.5
		c-0.5-1-0.8-2-1.4-2.9c-0.4-0.6-1.2-0.9-1.8-1.4c-0.4,0.6-1.1,1.3-1.2,1.9c-0.2,2.9-0.1,5.8-0.1,8.6c0,0.8,0,1.7-0.5,2.6
		c-1.3-2.4-2.6-4.9-3.9-7.3c-1.1-2.1-2-4.2-3.2-6.3c-0.4-0.6-1.3-1-2-1.4c-0.3,0.8-0.9,1.5-0.9,2.3c-0.1,3.7,0,7.4,0,11.1
		c0,2.3,0.9,4.3,2.3,6.1c1.1,1.4,2.2,2.7,3.1,4.2c2.7,4,1.4,8.6-2.3,11.5c-2.2,1.8-3.8,2-6.4,0.9c-7.9-3.1-15.3-1.5-21.8,3.9
		c-6.8,5.5-9.6,12.9-10,21.4c-0.1,1.2,0.1,2.4-0.1,3.6c-0.1,1-0.5,2.1-0.8,3.1c-1.3-0.4-2.8-0.7-4-1.4c-1.9-0.9-3.5-2.6-5.5-3.1
		c-4.3-1-8.8-1.6-13.3-2.1c-7.1-0.9-12.2-5.2-14.3-12.1c-3.3-10.8,1-18.9,9-25.6c4.7-3.9,9.9-7.1,14.8-10.8c4.5-3.4,8.7-7.2,11.8-12
		c1.9-2.9,3.1-6.1,2.8-9.7c-0.1-1.3-0.3-2.9,1.5-3.2c1.8-0.3,2.9,0.8,3.5,2.4c1.5,4,0.7,7.8-1.1,11.5c-2.8,5.9-7.3,10.4-12.4,14.3
		c-5.4,4.1-11,7.9-16.3,12.1c-5.2,4.1-8.9,9.2-8.2,16.3c1,9.7,9.8,13.5,17,11.6c3.1-0.8,4.6-3.2,4.7-7.2c0.2-4.4,0-8.8,0.5-13.1
		c1.4-12.2,6.5-22.2,17.8-28c2.8-1.5,6.3-1.6,9.5-2.3c1-0.2,2-0.3,3-0.3c3.8,0,5.4-2.4,6.4-5.6c1.3-4,2.4-8,4-11.8
		c0.7-1.8,2.1-3.5,3.6-4.8c3.2-3,6.6-5.7,10-8.5c0.5-0.4,1.1-0.7,1.7-1.2c0.3,0.6,0.5,1,0.8,1.6c0.8-0.4,1.5-0.8,2.7-1.5
		c-0.5,1.7-1,2.8-1.2,4c-0.1,0.7,0.2,2,0.6,2.1C91.1,23.7,93.4,26.2,95.6,28.8z"/>
	<path class="st2" d="M152.2,106.1c-2.7,0-5.4,0-8.1,0c0-0.1,0-0.1,0-0.2c2.7,0,5.4,0,8.2,0C152.3,106,152.3,106.1,152.2,106.1z"/>
	<g>
		<path class="st0" d="M8.9,136.1c-0.2,0-0.4-0.1-0.5-0.3l-7.3-16.5c-0.1-0.3,0-0.5,0.4-0.5h3c0.4,0,0.6,0.2,0.8,0.4l2.5,5.8
			l2.7,7.2h0.2l2.7-7.2l2.4-5.8c0.1-0.3,0.3-0.4,0.6-0.4h3.2c0.3,0,0.4,0.2,0.3,0.4l-7.4,16.6c-0.1,0.2-0.3,0.3-0.5,0.3H8.9z"/>
		<path class="st0" d="M38.1,133.2c0.2,0.2,0.1,0.3,0,0.5c-2.3,1.9-5,2.7-7.5,2.7c-5.4,0-9.2-3.8-9.2-8.9c0-5.2,3.9-8.9,9.1-8.9
			c5.2,0,8.8,3.8,8.8,8.9v1.3c0,0.3-0.1,0.4-0.4,0.4H25.2c0.6,2.2,2.6,3.7,5.4,3.7c2.2,0,3.9-0.4,5.5-1.8c0.2-0.2,0.4-0.2,0.5,0
			L38.1,133.2z M25.1,125.7h10.3c-0.3-2.2-2.5-3.8-5-3.8C27.8,121.9,25.6,123.5,25.1,125.7z"/>
		<path class="st0" d="M43.4,115.4c0-0.3,0.2-0.4,0.4-0.4h2.4c0.2,0,0.4,0.2,0.4,0.4v3.4h4.7c0.3,0,0.4,0.2,0.4,0.4v2.5
			c0,0.3-0.2,0.4-0.4,0.4h-4.7v8.2c0,1.6,0.9,2.5,2.2,2.5c0.9,0,1.6-0.2,2.3-0.5c0.4-0.2,0.5,0,0.6,0.2l0.9,2
			c0.1,0.3,0.1,0.5-0.2,0.6c-1.2,0.8-2.4,1.1-4,1.1c-3.8,0-5.5-2.4-5.5-5.8v-8.3h-2c-0.3,0-0.4-0.2-0.4-0.4v-2.3
			c0-0.2,0.1-0.4,0.4-0.4l2.1-0.2L43.4,115.4z"/>
		<path class="st0" d="M63.5,118.5c5,0,9.1,3.9,9.1,8.9c0,5.1-4.1,8.9-9.1,8.9c-5,0-9.1-3.8-9.1-8.9
			C54.4,122.3,58.5,118.5,63.5,118.5z M58.1,127.4c0,3.2,2.2,5.4,5.4,5.4c3.2,0,5.4-2.3,5.4-5.4c0-3.2-2.2-5.5-5.4-5.5
			C60.3,121.9,58.1,124.2,58.1,127.4z"/>
		<path class="st1" d="M91.3,121.8c0.2,0.2,0.2,0.4-0.1,0.6l-1,0.8c-0.2,0.1-0.4,0.1-0.6-0.1c-1.4-1.8-3.3-2.7-5.5-2.7
			c-3.9,0-6.8,3.1-6.8,7c0,4,2.9,7,6.8,7c2.2,0,4.2-0.9,5.6-2.7c0.1-0.2,0.4-0.2,0.6-0.1l0.9,0.8c0.2,0.2,0.3,0.3,0.1,0.6
			c-1.8,2.2-4.2,3.3-7.1,3.3c-5.1,0-9-3.8-9-8.9c0-5.1,4-8.9,9-8.9C87,118.5,89.5,119.6,91.3,121.8z"/>
		<path class="st1" d="M102.4,118.5c5.1,0,9,3.8,9,8.9c0,5.2-3.9,8.9-9,8.9c-5,0-8.9-3.8-8.9-8.9C93.5,122.2,97.4,118.5,102.4,118.5
			z M95.6,127.4c0,3.9,2.8,7,6.8,7c4.1,0,6.8-3.1,6.8-7c0-4-2.8-7-6.8-7C98.4,120.4,95.6,123.4,95.6,127.4z"/>
		<path class="st1" d="M114.6,119.1c0-0.3,0.1-0.4,0.4-0.4h1.1c0.3,0,0.4,0.1,0.4,0.4l0.1,1.8l0.1,0.1c1.4-1.8,3-2.5,5.2-2.5
			c2.5,0,4.7,0.9,5.9,3.1c1.5-1.9,3.5-3.1,5.8-3.1c3.6,0,6.8,2,6.8,6.9v10.3c0,0.3-0.1,0.4-0.4,0.4h-1.3c-0.3,0-0.4-0.1-0.4-0.4
			v-10.2c0-3.4-1.9-5.1-4.7-5.1c-2.2,0-3.9,1.3-5.2,2.9c0.1,0.6,0.2,1.2,0.2,1.9v10.4c0,0.3-0.1,0.4-0.4,0.4h-1.3
			c-0.3,0-0.4-0.1-0.4-0.4v-10.3c0-3.3-1.8-5-4.6-5c-2,0-3.8,1.1-5.2,2.9v12.4c0,0.3-0.1,0.4-0.4,0.4H115c-0.3,0-0.4-0.1-0.4-0.4
			V119.1z"/>
		<path class="st1" d="M144.3,141.7c-0.3,0-0.4-0.1-0.4-0.4v-22.1c0-0.3,0.1-0.4,0.4-0.4h1.1c0.3,0,0.4,0.2,0.4,0.4l0.1,1.8l0.2,0
			c1.7-1.7,3.7-2.5,6.3-2.5c5,0,8.8,3.6,8.8,8.9c0,5.4-3.8,8.9-8.8,8.9c-2.4,0-4.7-0.9-6.3-2.5v7.5c0,0.3-0.2,0.4-0.4,0.4H144.3z
			 M146,131.5c1.4,1.8,3.8,2.9,6.3,2.9c3.9,0,6.7-2.9,6.7-7c0-4.2-2.7-7-6.7-7c-2.5,0-4.9,1.1-6.3,2.9V131.5z"/>
		<path class="st1" d="M177,133.3c-1.9,1.9-4.2,3-7,3c-4.3,0-6.5-2.4-6.5-5.4c0-3,2.4-4.7,5.4-5.1l7.8-1V124c0-2.3-2.1-3.7-4.8-3.7
			c-2.3,0-4.4,0.6-6.1,1.9c-0.1,0.1-0.4,0.1-0.4,0l-0.7-1c-0.1-0.2-0.1-0.3,0.1-0.4c2-1.7,4.7-2.4,7.2-2.4c3.7,0,6.9,1.8,6.9,5.6
			v6.4c0,1.5,0.3,2.9,1,4.3l0.2,0.5c0.1,0.2,0.1,0.4-0.1,0.5l-1,0.4c-0.2,0.1-0.5,0.1-0.6-0.2l-1.1-2.6H177z M176.7,126.7l-7.5,1.1
			c-2.2,0.3-3.6,1.4-3.6,3.2c0,2.4,2.2,3.4,4.4,3.4c2.8,0,5.3-1.2,6.8-3.3V126.7z"/>
		<path class="st1" d="M184.6,118.7c0.3,0,0.4,0.2,0.4,0.4l0.1,1.8h0.2c1.5-1.7,3.4-2.5,5.7-2.5c3.2,0,5.8,1.6,6.8,4.8
			c0.1,0.2,0,0.3-0.2,0.4l-1.3,0.5c-0.2,0.1-0.4,0-0.4-0.2c-0.8-2.4-2.5-3.5-4.9-3.5c-2.4,0-4.2,1-5.7,2.9v12.4
			c0,0.3-0.2,0.4-0.4,0.4h-1.2c-0.3,0-0.4-0.1-0.4-0.4v-16.5c0-0.3,0.1-0.4,0.4-0.4H184.6z"/>
	</g>
</g>
</svg>
